# xmcd
#
# Track frame offsets: 
#        150
#        51187
#        78560
#        101422
#        147877
#        171027
#        212380
#        256097
#        294067
#
# Disc length: 4442 seconds
#
# Revision: 0
# Processed by: cddbd v1.5.2PL0 Copyright (c) Steve Scherf et al.
# Submitted via: ExactAudioCopy v0.95b4
#
DISCID=6f115809
DTITLE=Eric Clapton - Royal Albert Hall, London - February 25, 1991
DYEAR=1991
DGENRE=Blues
TTITLE0=Lights Are On But Nobody´s Home
TTITLE1=Black Cat Bone
TTITLE2=I Feel So Good  ???????
TTITLE3=Reconsider Baby
TTITLE4=Stranger Blues
TTITLE5=Hoochie Coochie Man
TTITLE6=Little by Little
TTITLE7=My Time After Awhile
TTITLE8=Sweet Home Chicago
EXTD=
EXTT0=
EXTT1=
EXTT2=
EXTT3=
EXTT4=
EXTT5=
EXTT6=
EXTT7=
EXTT8=
PLAYORDER=
